<svg xmlns="http://www.w3.org/2000/svg" xmlns:xlink="http://www.w3.org/1999/xlink" width="500" zoomAndPan="magnify" viewBox="0 0 375 374.999991" height="500" preserveAspectRatio="xMidYMid meet" version="1.0"><defs><g/><clipPath id="id1"><path d="M 126.949219 99.832031 L 195.949219 99.832031 L 195.949219 168.832031 L 126.949219 168.832031 Z M 126.949219 99.832031 " clip-rule="nonzero"/></clipPath><clipPath id="id2"><path d="M 126.949219 127.398438 L 256.699219 127.398438 L 256.699219 217.503906 L 126.949219 217.503906 Z M 126.949219 127.398438 " clip-rule="nonzero"/></clipPath></defs><path fill="#ca6633" d="M 165.492188 158.324219 L 157.40625 158.324219 L 157.40625 134.609375 C 157.40625 132.378906 159.214844 130.566406 161.449219 130.566406 C 163.679688 130.566406 165.492188 132.378906 165.492188 134.609375 Z M 165.492188 158.324219 " fill-opacity="1" fill-rule="nonzero"/><path fill="#ae5121" d="M 161.449219 130.566406 C 160.710938 130.566406 160.023438 130.765625 159.429688 131.109375 C 160.636719 131.808594 161.449219 133.113281 161.449219 134.609375 L 161.449219 158.324219 L 165.492188 158.324219 L 165.492188 134.609375 C 165.492188 132.378906 163.679688 130.566406 161.449219 130.566406 Z M 161.449219 130.566406 " fill-opacity="1" fill-rule="nonzero"/><path fill="#ea9946" d="M 192.910156 167.820312 L 129.988281 167.820312 C 128.871094 167.820312 127.96875 166.917969 127.96875 165.800781 C 127.96875 164.683594 128.871094 163.777344 129.988281 163.777344 L 192.910156 163.777344 C 194.023438 163.777344 194.929688 164.683594 194.929688 165.800781 C 194.929688 166.917969 194.023438 167.820312 192.910156 167.820312 Z M 192.910156 167.820312 " fill-opacity="1" fill-rule="nonzero"/><path fill="#d7893b" d="M 192.910156 163.777344 L 188.867188 163.777344 C 189.984375 163.777344 190.886719 164.683594 190.886719 165.800781 C 190.886719 166.917969 189.984375 167.820312 188.867188 167.820312 L 192.910156 167.820312 C 194.023438 167.820312 194.929688 166.917969 194.929688 165.800781 C 194.929688 164.683594 194.023438 163.777344 192.910156 163.777344 Z M 192.910156 163.777344 " fill-opacity="1" fill-rule="nonzero"/><path fill="#d7893b" d="M 177.085938 163.777344 L 145.8125 163.777344 C 145.8125 163.777344 152.101562 156.503906 161.449219 156.503906 C 170.796875 156.503906 177.085938 163.777344 177.085938 163.777344 Z M 177.085938 163.777344 " fill-opacity="1" fill-rule="nonzero"/><path fill="#cc7d2d" d="M 161.449219 156.503906 C 160.757812 156.503906 160.082031 156.542969 159.429688 156.617188 C 167.648438 157.539062 173.042969 163.777344 173.042969 163.777344 L 177.085938 163.777344 C 177.085938 163.777344 170.796875 156.503906 161.449219 156.503906 Z M 161.449219 156.503906 " fill-opacity="1" fill-rule="nonzero"/><path fill="#4ba543" d="M 161.617188 130.183594 C 180.628906 134.488281 192.917969 141.492188 192.917969 141.492188 C 193.15625 141.558594 193.296875 141.328125 193.226562 141.089844 C 192.421875 138.320312 190.632812 130.054688 183.363281 127.949219 C 178.832031 126.636719 167.511719 127.460938 161.617188 130.183594 Z M 161.617188 130.183594 " fill-opacity="1" fill-rule="nonzero"/><path fill="#44963d" d="M 193.226562 141.089844 C 192.421875 138.320312 190.632812 130.054688 183.363281 127.949219 C 181.542969 127.421875 178.625 127.238281 175.40625 127.386719 C 176.957031 127.46875 178.308594 127.65625 179.320312 127.949219 C 185.414062 129.710938 187.65625 135.804688 188.699219 139.359375 C 191.433594 140.644531 192.917969 141.492188 192.917969 141.492188 C 193.15625 141.558594 193.296875 141.328125 193.226562 141.089844 Z M 193.226562 141.089844 " fill-opacity="1" fill-rule="nonzero"/><path fill="#4ba543" d="M 162.085938 129.269531 C 179.855469 121.257812 193.882812 119.449219 193.882812 119.449219 C 194.113281 119.359375 194.089844 119.089844 193.890625 118.941406 C 191.578125 117.21875 185.171875 111.691406 178.101562 114.390625 C 173.695312 116.070312 165.152344 123.546875 162.085938 129.269531 Z M 162.085938 129.269531 " fill-opacity="1" fill-rule="nonzero"/><path fill="#44963d" d="M 162.152344 129.144531 C 162.128906 129.1875 162.105469 129.226562 162.085938 129.269531 C 162.683594 129 163.273438 128.738281 163.863281 128.480469 C 163.296875 128.691406 162.726562 128.914062 162.152344 129.144531 Z M 162.152344 129.144531 " fill-opacity="1" fill-rule="nonzero"/><path fill="#44963d" d="M 193.890625 118.941406 C 191.578125 117.21875 185.171875 111.691406 178.101562 114.390625 C 178.027344 114.417969 177.953125 114.445312 177.878906 114.476562 C 183.523438 114.847656 188.410156 118.128906 190.503906 120.03125 C 192.667969 119.605469 193.882812 119.449219 193.882812 119.449219 C 194.113281 119.359375 194.089844 119.089844 193.890625 118.941406 Z M 193.890625 118.941406 " fill-opacity="1" fill-rule="nonzero"/><path fill="#4ba543" d="M 161.933594 128.394531 C 171.171875 111.230469 181.214844 101.265625 181.214844 101.265625 C 181.34375 101.054688 181.15625 100.855469 180.910156 100.859375 C 178.027344 100.894531 169.582031 100.402344 165.605469 106.84375 C 163.128906 110.859375 160.894531 121.984375 161.933594 128.394531 Z M 161.933594 128.394531 " fill-opacity="1" fill-rule="nonzero"/><path fill="#44963d" d="M 180.910156 100.859375 C 180.054688 100.871094 178.703125 100.835938 177.125 100.949219 C 177.214844 101.027344 177.246094 101.144531 177.171875 101.265625 C 177.171875 101.265625 169.027344 108.179688 161.707031 126.101562 C 161.746094 126.914062 161.820312 127.683594 161.933594 128.394531 C 171.171875 111.230469 181.214844 101.265625 181.214844 101.265625 C 181.34375 101.054688 181.15625 100.855469 180.910156 100.859375 Z M 180.910156 100.859375 " fill-opacity="1" fill-rule="nonzero"/><path fill="#4ba543" d="M 161.039062 130.183594 C 142.027344 134.488281 129.738281 141.492188 129.738281 141.492188 C 129.5 141.558594 129.359375 141.328125 129.429688 141.089844 C 130.234375 138.320312 132.023438 130.054688 139.292969 127.949219 C 143.824219 126.636719 155.144531 127.460938 161.039062 130.183594 Z M 161.039062 130.183594 " fill-opacity="1" fill-rule="nonzero"/><path fill="#44963d" d="M 157.359375 128.890625 C 145.035156 131.71875 135.285156 136.238281 130.015625 139.027344 C 129.765625 139.855469 129.578125 140.570312 129.429688 141.089844 C 129.359375 141.328125 129.5 141.558594 129.738281 141.492188 C 129.738281 141.492188 142.027344 134.484375 161.039062 130.183594 C 159.96875 129.6875 158.714844 129.257812 157.359375 128.890625 Z M 157.359375 128.890625 " fill-opacity="1" fill-rule="nonzero"/><path fill="#4ba543" d="M 160.570312 129.269531 C 142.800781 121.257812 128.773438 119.449219 128.773438 119.449219 C 128.542969 119.359375 128.566406 119.089844 128.765625 118.941406 C 131.078125 117.21875 137.484375 111.691406 144.554688 114.390625 C 148.960938 116.070312 157.503906 123.546875 160.570312 129.269531 Z M 160.570312 129.269531 " fill-opacity="1" fill-rule="nonzero"/><path fill="#44963d" d="M 140.511719 114.390625 C 144.335938 115.847656 151.269531 121.664062 155.042969 126.917969 C 156.835938 127.632812 158.683594 128.414062 160.570312 129.269531 C 157.503906 123.546875 148.960938 116.070312 144.554688 114.390625 C 142.46875 113.59375 140.441406 113.515625 138.558594 113.839844 C 139.203125 113.957031 139.855469 114.136719 140.511719 114.390625 Z M 140.511719 114.390625 " fill-opacity="1" fill-rule="nonzero"/><path fill="#4ba543" d="M 160.722656 128.394531 C 151.484375 111.230469 141.441406 101.265625 141.441406 101.265625 C 141.3125 101.054688 141.5 100.855469 141.746094 100.859375 C 144.628906 100.894531 153.074219 100.402344 157.050781 106.84375 C 159.527344 110.859375 161.761719 121.984375 160.722656 128.394531 Z M 160.722656 128.394531 " fill-opacity="1" fill-rule="nonzero"/><path fill="#44963d" d="M 157.050781 106.84375 C 153.074219 100.402344 144.628906 100.894531 141.746094 100.859375 C 141.644531 100.859375 141.554688 100.894531 141.488281 100.949219 C 145.214844 101.214844 150.214844 102.320312 153.007812 106.84375 C 155.101562 110.238281 158.601562 118.847656 159.007812 125.304688 C 159.578125 126.304688 160.152344 127.335938 160.722656 128.394531 C 161.761719 121.984375 159.527344 110.859375 157.050781 106.84375 Z M 157.050781 106.84375 " fill-opacity="1" fill-rule="nonzero"/><path fill="#fdb720" d="M 161.449219 131.375 C 161.449219 133.609375 159.640625 135.417969 157.40625 135.417969 C 155.175781 135.417969 153.363281 133.609375 153.363281 131.375 C 153.363281 129.144531 155.175781 127.335938 157.40625 127.335938 C 159.640625 127.335938 161.449219 129.144531 161.449219 131.375 Z M 161.449219 131.375 " fill-opacity="1" fill-rule="nonzero"/><path fill="#fca309" d="M 157.40625 127.335938 C 156.671875 127.335938 155.980469 127.53125 155.386719 127.875 C 156.59375 128.574219 157.40625 129.878906 157.40625 131.375 C 157.40625 132.871094 156.59375 134.175781 155.386719 134.875 C 155.980469 135.21875 156.671875 135.417969 157.40625 135.417969 C 159.640625 135.417969 161.449219 133.609375 161.449219 131.375 C 161.449219 129.144531 159.640625 127.335938 157.40625 127.335938 Z M 157.40625 127.335938 " fill-opacity="1" fill-rule="nonzero"/><path fill="#fdb720" d="M 169.53125 131.375 C 169.53125 133.609375 167.722656 135.417969 165.492188 135.417969 C 163.257812 135.417969 161.449219 133.609375 161.449219 131.375 C 161.449219 129.144531 163.257812 127.335938 165.492188 127.335938 C 167.722656 127.335938 169.53125 129.144531 169.53125 131.375 Z M 169.53125 131.375 " fill-opacity="1" fill-rule="nonzero"/><path fill="#fca309" d="M 165.492188 127.335938 C 164.753906 127.335938 164.0625 127.53125 163.46875 127.875 C 164.675781 128.574219 165.492188 129.878906 165.492188 131.375 C 165.492188 132.871094 164.675781 134.175781 163.46875 134.875 C 164.0625 135.21875 164.753906 135.417969 165.492188 135.417969 C 167.722656 135.417969 169.53125 133.609375 169.53125 131.375 C 169.53125 129.144531 167.722656 127.335938 165.492188 127.335938 Z M 165.492188 127.335938 " fill-opacity="1" fill-rule="nonzero"/><path fill="#fdb720" d="M 165.492188 127.335938 C 165.492188 129.566406 163.679688 131.375 161.449219 131.375 C 159.214844 131.375 157.40625 129.566406 157.40625 127.335938 C 157.40625 125.101562 159.214844 123.292969 161.449219 123.292969 C 163.679688 123.292969 165.492188 125.101562 165.492188 127.335938 Z M 165.492188 127.335938 " fill-opacity="1" fill-rule="nonzero"/><path fill="#fca309" d="M 161.449219 123.292969 C 160.710938 123.292969 160.023438 123.492188 159.429688 123.835938 C 160.636719 124.535156 161.449219 125.839844 161.449219 127.335938 C 161.449219 128.832031 160.636719 130.136719 159.429688 130.835938 C 160.023438 131.179688 160.710938 131.375 161.449219 131.375 C 163.679688 131.375 165.492188 129.566406 165.492188 127.335938 C 165.492188 125.101562 163.679688 123.292969 161.449219 123.292969 Z M 161.449219 123.292969 " fill-opacity="1" fill-rule="nonzero"/><g clip-path="url(#id1)"><path fill="#000000" d="M 192.910156 162.769531 L 177.53125 162.769531 C 176.398438 161.574219 172.386719 157.722656 166.5 156.160156 L 166.5 136.328125 C 168.109375 136 169.445312 134.902344 170.101562 133.441406 C 183.746094 137.476562 192.332031 142.320312 192.417969 142.367188 C 192.488281 142.410156 192.558594 142.441406 192.636719 142.460938 C 192.753906 142.496094 192.875 142.511719 192.992188 142.511719 C 193.367188 142.511719 193.730469 142.347656 193.976562 142.050781 C 194.304688 141.652344 194.363281 141.097656 194.128906 140.632812 C 193.84375 140.070312 193.542969 139.269531 193.195312 138.347656 C 192.691406 137.007812 192.0625 135.335938 191.210938 133.722656 C 190.949219 133.230469 190.339844 133.042969 189.84375 133.300781 C 189.351562 133.5625 189.164062 134.175781 189.425781 134.667969 C 190.21875 136.167969 190.796875 137.703125 191.304688 139.058594 C 191.375 139.25 191.445312 139.433594 191.511719 139.609375 C 188.199219 137.941406 180.742188 134.46875 170.539062 131.464844 C 170.542969 131.433594 170.542969 131.40625 170.542969 131.375 C 170.542969 130.5 170.316406 129.675781 169.921875 128.953125 C 174.921875 128.179688 180.378906 128.144531 183.085938 128.921875 C 184.621094 129.359375 185.941406 130.164062 187.113281 131.382812 C 187.3125 131.585938 187.578125 131.691406 187.84375 131.691406 C 188.09375 131.691406 188.347656 131.597656 188.542969 131.40625 C 188.945312 131.019531 188.957031 130.378906 188.570312 129.976562 C 187.160156 128.519531 185.503906 127.511719 183.640625 126.976562 C 180.851562 126.179688 175.714844 126.132812 170.726562 126.796875 C 181.351562 122.8125 190.40625 120.917969 194.011719 120.453125 C 194.089844 120.441406 194.167969 120.421875 194.242188 120.394531 C 194.683594 120.226562 194.984375 119.851562 195.046875 119.398438 C 195.113281 118.921875 194.902344 118.433594 194.496094 118.132812 C 194.335938 118.011719 194.15625 117.875 193.957031 117.722656 C 191.226562 115.632812 184.839844 110.738281 177.738281 113.445312 C 175.015625 114.484375 170.957031 117.496094 167.417969 120.976562 C 169.941406 116.949219 172.648438 113.082031 175.496094 109.445312 C 175.839844 109.007812 175.765625 108.371094 175.324219 108.027344 C 174.886719 107.683594 174.25 107.761719 173.90625 108.199219 C 170.3125 112.785156 166.941406 117.730469 163.878906 122.90625 C 163.527344 122.710938 163.152344 122.5625 162.757812 122.457031 C 163.117188 116.816406 164.730469 110.1875 166.464844 107.375 C 169.5625 102.359375 175.640625 101.914062 179.242188 101.875 C 178.59375 102.582031 177.714844 103.5625 176.660156 104.8125 C 176.300781 105.238281 176.355469 105.875 176.78125 106.234375 C 177.207031 106.59375 177.84375 106.539062 178.207031 106.113281 C 180.460938 103.441406 181.910156 102 181.925781 101.984375 C 181.984375 101.929688 182.03125 101.867188 182.074219 101.796875 C 182.320312 101.398438 182.332031 100.917969 182.105469 100.519531 C 181.871094 100.105469 181.417969 99.847656 180.914062 99.847656 C 180.910156 99.847656 180.902344 99.847656 180.898438 99.847656 C 180.699219 99.851562 180.472656 99.851562 180.222656 99.851562 C 176.789062 99.847656 168.738281 99.847656 164.746094 106.3125 C 163.355469 108.566406 162.070312 112.828125 161.328125 117.292969 C 160.585938 112.828125 159.300781 108.570312 157.910156 106.3125 C 153.917969 99.847656 145.875 99.851562 142.433594 99.851562 C 142.183594 99.851562 141.957031 99.851562 141.757812 99.847656 C 141.25 99.839844 140.789062 100.101562 140.550781 100.519531 C 140.324219 100.917969 140.335938 101.398438 140.582031 101.796875 C 140.625 101.867188 140.675781 101.929688 140.730469 101.984375 C 140.808594 102.058594 147.710938 108.976562 155.230469 120.960938 C 151.695312 117.488281 147.664062 114.492188 144.914062 113.445312 C 137.8125 110.738281 131.429688 115.632812 128.699219 117.722656 C 128.5 117.875 128.320312 118.011719 128.160156 118.128906 C 127.753906 118.433594 127.542969 118.921875 127.609375 119.398438 C 127.671875 119.851562 127.972656 120.226562 128.414062 120.394531 C 128.488281 120.421875 128.566406 120.441406 128.644531 120.449219 C 128.660156 120.453125 130.382812 120.679688 133.320312 121.296875 C 133.867188 121.414062 134.402344 121.066406 134.515625 120.519531 C 134.632812 119.972656 134.28125 119.4375 133.738281 119.320312 C 132.507812 119.0625 131.488281 118.871094 130.710938 118.734375 C 133.589844 116.574219 138.6875 113.234375 144.195312 115.332031 C 147.449219 116.574219 152.980469 121.09375 156.726562 125.539062 C 156.621094 125.820312 156.539062 126.109375 156.484375 126.410156 C 150.386719 123.914062 144.175781 121.863281 138.023438 120.316406 C 137.480469 120.179688 136.933594 120.507812 136.796875 121.046875 C 136.660156 121.589844 136.988281 122.140625 137.53125 122.273438 C 142.320312 123.480469 147.148438 124.996094 151.929688 126.792969 C 146.921875 126.125 141.800781 126.171875 139.011719 126.976562 C 131.710938 129.089844 129.558594 136.84375 128.640625 140.15625 C 128.574219 140.398438 128.511719 140.613281 128.457031 140.808594 C 128.316406 141.292969 128.4375 141.808594 128.78125 142.152344 C 129.015625 142.386719 129.328125 142.515625 129.652344 142.515625 C 129.773438 142.515625 129.898438 142.496094 130.019531 142.460938 C 130.097656 142.441406 130.167969 142.40625 130.238281 142.367188 C 130.324219 142.320312 138.980469 137.429688 152.769531 133.375 C 153.414062 134.871094 154.761719 135.996094 156.394531 136.328125 L 156.394531 156.160156 C 150.511719 157.722656 146.5 161.574219 145.367188 162.769531 L 129.988281 162.769531 C 128.316406 162.769531 126.957031 164.128906 126.957031 165.800781 C 126.957031 167.472656 128.316406 168.832031 129.988281 168.832031 L 192.910156 168.832031 C 194.578125 168.832031 195.941406 167.472656 195.941406 165.800781 C 195.941406 164.128906 194.578125 162.769531 192.910156 162.769531 Z M 161.449219 134.402344 C 162.179688 135.375 163.246094 136.078125 164.480469 136.328125 L 164.480469 139.527344 L 158.417969 139.527344 L 158.417969 136.328125 C 159.648438 136.074219 160.71875 135.375 161.449219 134.402344 Z M 164.480469 144.984375 L 158.417969 144.984375 L 158.417969 141.546875 L 164.480469 141.546875 Z M 158.417969 147.003906 L 164.480469 147.003906 L 164.480469 150.441406 L 158.417969 150.441406 Z M 165.492188 134.40625 C 163.820312 134.40625 162.460938 133.046875 162.460938 131.375 C 162.460938 129.703125 163.820312 128.34375 165.492188 128.34375 C 167.164062 128.34375 168.523438 129.703125 168.523438 131.375 C 168.523438 133.046875 167.164062 134.40625 165.492188 134.40625 Z M 158.546875 126.457031 C 158.925781 125.210938 160.082031 124.304688 161.449219 124.304688 C 162.8125 124.304688 163.972656 125.210938 164.351562 126.457031 C 163.171875 126.726562 162.152344 127.414062 161.449219 128.347656 C 160.746094 127.414062 159.726562 126.726562 158.546875 126.457031 Z M 178.460938 115.332031 C 183.972656 113.230469 189.070312 116.578125 191.949219 118.734375 C 188.070312 119.421875 178.3125 121.464844 166.398438 126.316406 C 166.328125 125.980469 166.226562 125.65625 166.09375 125.347656 C 169.824219 120.980469 175.285156 116.546875 178.460938 115.332031 Z M 156.1875 107.375 C 157.933594 110.203125 159.554688 116.867188 159.902344 122.527344 C 159.527344 122.644531 159.171875 122.808594 158.839844 123.007812 C 152.414062 112.140625 146.039062 104.742188 143.410156 101.875 C 147.007812 101.914062 153.089844 102.355469 156.1875 107.375 Z M 130.851562 139.757812 C 131.851562 136.300781 133.910156 130.558594 139.574219 128.917969 C 142.316406 128.125 147.867188 128.171875 152.957031 128.988281 C 152.574219 129.699219 152.355469 130.511719 152.355469 131.375 C 152.355469 131.382812 152.355469 131.386719 152.355469 131.394531 C 141.71875 134.507812 134.03125 138.136719 130.851562 139.757812 Z M 154.375 131.375 C 154.375 129.703125 155.734375 128.34375 157.40625 128.34375 C 159.078125 128.34375 160.4375 129.703125 160.4375 131.375 C 160.4375 133.046875 159.078125 134.40625 157.40625 134.40625 C 155.734375 134.40625 154.375 133.046875 154.375 131.375 Z M 158.417969 152.460938 L 164.480469 152.460938 L 164.480469 155.730469 C 163.511719 155.578125 162.5 155.492188 161.449219 155.492188 C 160.398438 155.492188 159.386719 155.578125 158.417969 155.730469 Z M 161.449219 157.515625 C 167.433594 157.515625 172.160156 160.71875 174.570312 162.769531 L 148.324219 162.769531 C 150.726562 160.71875 155.445312 157.515625 161.449219 157.515625 Z M 192.910156 166.808594 L 129.988281 166.808594 C 129.433594 166.808594 128.980469 166.355469 128.980469 165.800781 C 128.980469 165.242188 129.433594 164.789062 129.988281 164.789062 L 192.910156 164.789062 C 193.464844 164.789062 193.917969 165.242188 193.917969 165.800781 C 193.917969 166.355469 193.464844 166.808594 192.910156 166.808594 Z M 192.910156 166.808594 " fill-opacity="1" fill-rule="nonzero"/></g><path fill="#1189d3" d="M 152.957031 213.929688 C 160.214844 218.140625 169.492188 215.644531 173.683594 208.351562 L 174.300781 207.28125 C 178.488281 199.988281 176.003906 190.664062 168.746094 186.457031 L 152.957031 213.929688 " fill-opacity="1" fill-rule="nonzero"/><path fill="#34b4f4" d="M 249.320312 128.933594 C 240.78125 128.933594 233.855469 135.890625 233.855469 144.46875 C 233.855469 135.890625 226.929688 128.933594 218.390625 128.933594 L 212.539062 128.933594 L 212.539062 134.472656 C 212.539062 139.992188 216.996094 144.46875 222.492188 144.46875 L 228.34375 144.46875 C 226.804688 157.183594 216.375 162.683594 209.363281 162.683594 L 128.476562 162.683594 C 128.476562 189.4375 150.066406 211.128906 176.699219 211.128906 L 184.3125 211.128906 C 188.816406 211.128906 193.167969 210.464844 197.277344 209.246094 C 197.277344 209.25 197.277344 209.25 197.277344 209.253906 C 197.328125 209.238281 197.375 209.21875 197.425781 209.203125 C 198.980469 208.734375 200.503906 208.195312 201.984375 207.570312 C 230.5 196.542969 239.972656 175.296875 239.972656 144.46875 L 245.21875 144.46875 C 250.714844 144.46875 255.171875 139.992188 255.171875 134.472656 L 255.171875 128.933594 L 249.320312 128.933594 " fill-opacity="1" fill-rule="nonzero"/><path fill="#7dceff" d="M 209.363281 168.75 C 216.375 168.75 226.804688 163.253906 228.34375 150.539062 L 226.757812 150.539062 C 223.222656 158.949219 215.136719 162.683594 209.363281 162.683594 L 128.476562 162.683594 C 128.476562 164.738281 128.605469 166.761719 128.851562 168.75 L 209.363281 168.75 " fill-opacity="1" fill-rule="nonzero"/><path fill="#7dceff" d="M 249.320312 128.933594 C 240.78125 128.933594 233.855469 135.890625 233.855469 144.46875 C 233.855469 135.890625 226.929688 128.933594 218.390625 128.933594 L 212.539062 128.933594 L 212.539062 134.472656 C 212.539062 134.648438 212.546875 134.824219 212.554688 135 L 218.390625 135 C 225.066406 135 230.753906 139.253906 232.921875 145.207031 L 234.789062 145.207031 C 236.957031 139.253906 242.644531 135 249.320312 135 L 255.15625 135 C 255.167969 134.824219 255.171875 134.648438 255.171875 134.472656 L 255.171875 128.933594 L 249.320312 128.933594 " fill-opacity="1" fill-rule="nonzero"/><path fill="#eff6f9" d="M 237.460938 168.394531 C 228.710938 193.179688 204.796875 197.085938 193.621094 198.242188 C 182.4375 199.394531 172.6875 194.433594 163.011719 184.238281 C 154.355469 175.621094 149.765625 174.527344 140.039062 174.527344 C 137.992188 174.527344 133.667969 174.527344 129.933594 174.527344 C 135.195312 195.558594 154.136719 211.128906 176.699219 211.128906 L 184.3125 211.128906 C 188.816406 211.128906 193.167969 210.464844 197.277344 209.246094 C 197.277344 209.25 197.277344 209.25 197.277344 209.253906 C 197.328125 209.238281 197.375 209.21875 197.425781 209.203125 C 198.980469 208.734375 200.503906 208.195312 201.984375 207.570312 C 222.40625 199.671875 233.058594 186.535156 237.460938 168.394531 " fill-opacity="1" fill-rule="nonzero"/><path fill="#c8d6db" d="M 225.550781 186.164062 C 219.804688 192.613281 212.09375 197.808594 201.984375 201.71875 C 200.503906 202.339844 198.980469 202.882812 197.425781 203.351562 C 197.375 203.367188 197.328125 203.382812 197.277344 203.402344 C 197.277344 203.398438 197.277344 203.394531 197.277344 203.390625 C 193.167969 204.613281 188.816406 205.277344 184.3125 205.277344 L 176.699219 205.277344 C 156.285156 205.277344 138.839844 192.53125 131.804688 174.527344 C 131.171875 174.527344 130.546875 174.527344 129.933594 174.527344 C 135.195312 195.558594 154.136719 211.128906 176.699219 211.128906 L 184.3125 211.128906 C 188.816406 211.128906 193.167969 210.464844 197.277344 209.246094 C 197.277344 209.25 197.277344 209.25 197.277344 209.253906 C 197.328125 209.238281 197.375 209.21875 197.425781 209.203125 C 198.980469 208.734375 200.503906 208.195312 201.984375 207.570312 C 222.40625 199.671875 233.058594 186.535156 237.460938 168.394531 C 234.707031 176.199219 230.445312 181.933594 225.550781 186.164062 " fill-opacity="1" fill-rule="nonzero"/><path fill="#34b4f4" d="M 206.960938 213.929688 C 199.703125 218.140625 190.421875 215.644531 186.230469 208.351562 L 185.617188 207.28125 C 181.425781 199.988281 183.914062 190.664062 191.171875 186.457031 L 206.960938 213.929688 " fill-opacity="1" fill-rule="nonzero"/><path fill="#7dceff" d="M 191.171875 186.457031 C 189.613281 187.359375 188.277344 188.5 187.179688 189.800781 L 202.082031 215.730469 C 203.753906 215.425781 205.402344 214.835938 206.960938 213.929688 L 191.171875 186.457031 " fill-opacity="1" fill-rule="nonzero"/><g clip-path="url(#id2)"><path fill="#402943" d="M 253.644531 134.472656 C 253.644531 139.136719 249.863281 142.9375 245.21875 142.9375 L 239.972656 142.9375 C 239.128906 142.9375 238.445312 143.621094 238.445312 144.46875 C 238.445312 153.121094 237.753906 160.714844 236.300781 167.398438 C 236.183594 167.539062 236.085938 167.699219 236.019531 167.878906 C 230.496094 183.535156 217.855469 193.011719 198.457031 196.066406 L 192.492188 185.6875 C 192.070312 184.953125 191.136719 184.703125 190.40625 185.125 C 186.296875 187.507812 183.582031 191.394531 182.542969 195.695312 C 176.382812 193.839844 170.339844 189.734375 164.117188 183.179688 C 164.105469 183.167969 164.097656 183.15625 164.085938 183.148438 C 155.359375 174.460938 150.429688 172.992188 140.039062 172.992188 L 131.144531 172.992188 C 130.507812 170.15625 130.125 167.222656 130.03125 164.21875 L 209.363281 164.21875 C 216.371094 164.21875 228.136719 158.90625 229.863281 144.65625 C 229.914062 144.21875 229.78125 143.78125 229.488281 143.453125 C 229.199219 143.125 228.78125 142.9375 228.34375 142.9375 L 222.492188 142.9375 C 217.847656 142.9375 214.066406 139.136719 214.066406 134.472656 L 214.066406 130.46875 L 217.777344 130.46875 C 217.75 134.339844 217.84375 137.40625 221.417969 139.527344 C 221.539062 139.597656 221.671875 139.632812 221.804688 139.632812 C 222.066406 139.632812 222.320312 139.5 222.464844 139.253906 C 222.679688 138.890625 222.558594 138.417969 222.195312 138.203125 C 219.363281 136.527344 219.28125 134.230469 219.304688 130.5 C 226.566406 130.976562 232.328125 137.058594 232.328125 144.46875 C 232.328125 145.320312 233.011719 146.007812 233.855469 146.007812 C 234.699219 146.007812 235.382812 145.320312 235.382812 144.46875 C 235.382812 137.003906 241.230469 130.882812 248.566406 130.488281 C 248.59375 134.222656 248.511719 136.523438 245.679688 138.203125 C 245.316406 138.417969 245.195312 138.890625 245.410156 139.253906 C 245.550781 139.5 245.808594 139.632812 246.066406 139.632812 C 246.199219 139.632812 246.332031 139.597656 246.457031 139.527344 C 250.027344 137.40625 250.121094 134.339844 250.097656 130.46875 L 253.644531 130.46875 Z M 202.101562 202.410156 L 200.09375 198.910156 C 206.011719 197.890625 211.316406 196.28125 216.011719 194.097656 C 210.859375 198.089844 204.90625 201.15625 202.101562 202.410156 Z M 203.710938 205.210938 L 202.871094 203.746094 C 206.777344 201.980469 216.0625 197.070312 221.730469 191.023438 C 221.769531 190.980469 221.804688 190.933594 221.832031 190.886719 C 224.375 189.238281 226.699219 187.378906 228.777344 185.296875 C 223.148438 193.992188 214.914062 200.484375 203.710938 205.210938 Z M 187.554688 207.582031 L 186.941406 206.511719 C 185.402344 203.835938 184.867188 200.847656 185.21875 197.992188 C 185.222656 197.984375 185.226562 197.976562 185.226562 197.96875 C 185.253906 197.863281 185.265625 197.757812 185.269531 197.652344 C 185.789062 194.132812 187.65625 190.84375 190.652344 188.628906 L 196.347656 198.539062 C 196.347656 198.539062 196.347656 198.539062 196.351562 198.539062 L 204.828125 213.296875 C 198.554688 216.050781 191.058594 213.679688 187.554688 207.582031 Z M 184.3125 209.59375 L 176.699219 209.59375 C 176.121094 209.59375 175.539062 209.582031 174.964844 209.558594 C 174.847656 209.554688 174.734375 209.550781 174.617188 209.546875 C 174.066406 209.523438 173.519531 209.488281 172.972656 209.445312 C 172.851562 209.433594 172.730469 209.421875 172.609375 209.414062 C 172.109375 209.371094 171.613281 209.320312 171.117188 209.257812 C 171.035156 209.25 170.953125 209.242188 170.871094 209.230469 C 170.363281 209.167969 169.859375 209.089844 169.355469 209.011719 C 169.167969 208.984375 168.984375 208.953125 168.796875 208.921875 C 168.339844 208.84375 167.882812 208.757812 167.429688 208.664062 C 167.1875 208.617188 166.949219 208.5625 166.707031 208.511719 C 166.460938 208.457031 166.214844 208.398438 165.972656 208.34375 C 165.425781 208.214844 164.886719 208.074219 164.351562 207.929688 C 164.277344 207.90625 164.203125 207.890625 164.132812 207.867188 C 149.679688 203.808594 138.039062 192.917969 132.882812 178.898438 C 132.855469 178.824219 132.824219 178.746094 132.796875 178.667969 C 132.644531 178.25 132.5 177.828125 132.363281 177.402344 C 132.25 177.058594 132.136719 176.714844 132.035156 176.367188 C 132.003906 176.265625 131.972656 176.164062 131.941406 176.0625 L 136.210938 176.0625 C 138.359375 181.503906 143.542969 191.207031 150.941406 196.851562 C 151.078125 196.960938 151.238281 197.011719 151.402344 197.011719 C 151.632812 197.011719 151.859375 196.90625 152.011719 196.707031 C 152.265625 196.371094 152.199219 195.886719 151.863281 195.632812 C 144.976562 190.375 140.066406 181.421875 137.859375 176.0625 L 140.039062 176.0625 C 140.71875 176.0625 141.371094 176.066406 142.003906 176.078125 C 144.429688 182.148438 149.707031 190.257812 157.878906 196.199219 C 158.015625 196.296875 158.171875 196.347656 158.328125 196.347656 C 158.5625 196.347656 158.796875 196.234375 158.945312 196.027344 C 159.191406 195.683594 159.117188 195.207031 158.773438 194.957031 C 151.136719 189.402344 146.125 181.914062 143.683594 176.132812 C 145.363281 176.210938 146.886719 176.371094 148.332031 176.675781 C 150.945312 181.714844 157.222656 190.484375 166.621094 195.769531 C 166.738281 195.835938 166.867188 195.867188 166.992188 195.867188 C 167.261719 195.867188 167.519531 195.726562 167.660156 195.476562 C 167.867188 195.105469 167.734375 194.636719 167.367188 194.429688 C 159.007812 189.730469 153.210938 182.1875 150.371094 177.21875 C 153.945312 178.394531 157.308594 180.722656 161.921875 185.3125 C 168.652344 192.402344 175.265625 196.8125 182.089844 198.765625 C 182.011719 200.1875 182.113281 201.625 182.402344 203.046875 C 178.152344 202.882812 173.664062 202.175781 170.714844 201.191406 C 170.316406 201.054688 169.882812 201.273438 169.75 201.675781 C 169.617188 202.078125 169.832031 202.511719 170.234375 202.644531 C 173.414062 203.710938 178.28125 204.460938 182.796875 204.597656 C 183 205.25 183.238281 205.898438 183.519531 206.535156 C 178.878906 206.550781 171.582031 206.351562 165.851562 204.375 C 165.453125 204.238281 165.019531 204.453125 164.882812 204.851562 C 164.746094 205.253906 164.957031 205.691406 165.355469 205.828125 C 171.089844 207.808594 178.242188 208.070312 182.992188 208.070312 C 183.453125 208.070312 183.890625 208.066406 184.300781 208.0625 L 184.910156 209.117188 C 185 209.277344 185.097656 209.425781 185.195312 209.578125 C 184.898438 209.585938 184.605469 209.59375 184.3125 209.59375 Z M 155.085938 213.292969 L 157.632812 208.867188 C 161.042969 210.285156 164.632812 211.332031 168.351562 211.964844 C 164.503906 214.644531 159.4375 215.191406 155.085938 213.292969 Z M 255.171875 127.398438 L 249.324219 127.398438 C 242.460938 127.398438 236.535156 131.503906 233.855469 137.398438 C 231.175781 131.503906 225.25 127.398438 218.390625 127.398438 L 212.539062 127.398438 C 211.695312 127.398438 211.011719 128.085938 211.011719 128.933594 L 211.011719 134.472656 C 211.011719 140.832031 216.160156 146.007812 222.492188 146.007812 L 226.554688 146.007812 C 224.386719 157 215.039062 161.148438 209.363281 161.148438 L 128.476562 161.148438 C 127.632812 161.148438 126.949219 161.835938 126.949219 162.683594 C 126.949219 166.886719 127.472656 170.972656 128.449219 174.878906 C 128.453125 174.886719 128.449219 174.894531 128.453125 174.902344 C 128.464844 174.945312 128.476562 174.984375 128.484375 175.027344 C 128.519531 175.164062 128.554688 175.296875 128.59375 175.433594 C 128.664062 175.703125 128.734375 175.976562 128.8125 176.246094 C 128.832031 176.320312 128.851562 176.390625 128.875 176.464844 C 132.832031 190.390625 142.449219 201.523438 154.832031 207.597656 L 151.632812 213.164062 C 151.210938 213.898438 151.460938 214.835938 152.191406 215.261719 C 154.777344 216.761719 157.648438 217.484375 160.503906 217.484375 C 164.902344 217.484375 169.257812 215.757812 172.457031 212.484375 C 172.546875 212.492188 172.636719 212.5 172.722656 212.503906 C 172.847656 212.515625 172.976562 212.523438 173.101562 212.535156 C 173.367188 212.554688 173.636719 212.570312 173.90625 212.585938 C 174.042969 212.59375 174.179688 212.601562 174.316406 212.605469 C 174.59375 212.621094 174.867188 212.628906 175.140625 212.636719 C 175.265625 212.640625 175.386719 212.648438 175.511719 212.648438 C 175.90625 212.660156 176.304688 212.664062 176.699219 212.664062 L 184.3125 212.664062 C 185.378906 212.664062 186.460938 212.625 187.527344 212.550781 C 190.695312 215.757812 195.003906 217.503906 199.402344 217.503906 C 202.230469 217.503906 205.101562 216.78125 207.722656 215.261719 C 208.453125 214.835938 208.707031 213.898438 208.28125 213.164062 L 205.269531 207.917969 C 218.53125 202.472656 227.808594 194.621094 233.582031 183.953125 C 238.820312 174.28125 241.347656 162.191406 241.496094 146.007812 L 245.21875 146.007812 C 251.546875 146.007812 256.699219 140.832031 256.699219 134.472656 L 256.699219 128.933594 C 256.699219 128.085938 256.015625 127.398438 255.171875 127.398438 " fill-opacity="1" fill-rule="nonzero"/></g><path fill="#402943" d="M 166.992188 174.171875 C 166.148438 174.171875 165.464844 174.859375 165.464844 175.707031 C 165.464844 176.554688 166.148438 177.242188 166.992188 177.242188 C 167.835938 177.242188 168.519531 176.554688 168.519531 175.707031 C 168.519531 174.859375 167.835938 174.171875 166.992188 174.171875 " fill-opacity="1" fill-rule="nonzero"/><path fill="#402943" d="M 169.65625 197.675781 C 171.589844 198.84375 175.472656 200.433594 177.945312 200.847656 C 177.988281 200.855469 178.03125 200.855469 178.070312 200.855469 C 178.4375 200.855469 178.761719 200.589844 178.824219 200.214844 C 178.894531 199.796875 178.613281 199.402344 178.195312 199.332031 C 175.957031 198.957031 172.257812 197.453125 170.441406 196.359375 C 170.082031 196.144531 169.609375 196.261719 169.394531 196.625 C 169.175781 196.988281 169.292969 197.460938 169.65625 197.675781 " fill-opacity="1" fill-rule="nonzero"/><path fill="#402943" d="M 160.597656 198.25 C 161.832031 199.09375 163.738281 200.308594 165.996094 201.109375 C 166.078125 201.136719 166.164062 201.152344 166.25 201.152344 C 166.5625 201.152344 166.859375 200.957031 166.96875 200.640625 C 167.109375 200.242188 166.902344 199.800781 166.503906 199.660156 C 164.414062 198.917969 162.621094 197.773438 161.457031 196.980469 C 161.105469 196.742188 160.632812 196.832031 160.394531 197.183594 C 160.15625 197.53125 160.246094 198.011719 160.597656 198.25 " fill-opacity="1" fill-rule="nonzero"/><path fill="#402943" d="M 161.695312 202.332031 C 158.8125 201.285156 155.757812 199.359375 154.507812 198.390625 C 154.175781 198.132812 153.695312 198.195312 153.4375 198.53125 C 153.179688 198.867188 153.242188 199.347656 153.574219 199.605469 C 154.949219 200.671875 158.109375 202.660156 161.175781 203.777344 C 161.261719 203.808594 161.351562 203.820312 161.4375 203.820312 C 161.75 203.820312 162.042969 203.628906 162.15625 203.316406 C 162.300781 202.917969 162.09375 202.476562 161.695312 202.332031 " fill-opacity="1" fill-rule="nonzero"/><g fill="#34b4f4" fill-opacity="1"><g transform="translate(125.59063, 264.600026)"><g><path d="M 18.171875 -27.125 L 26.359375 -27.125 L 17.484375 0 L 8.84375 0 L 0 -27.125 L 8.234375 -27.125 L 11.9375 -13.375 C 12.695312 -10.320312 13.113281 -8.195312 13.1875 -7 C 13.28125 -7.863281 13.457031 -8.941406 13.71875 -10.234375 C 13.976562 -11.535156 14.207031 -12.554688 14.40625 -13.296875 Z M 18.171875 -27.125 "/></g></g></g><g fill="#34b4f4" fill-opacity="1"><g transform="translate(151.951418, 264.600026)"><g><path d="M 2.9375 0 L 2.9375 -27.125 L 10.296875 -27.125 L 10.296875 0 Z M 2.9375 0 "/></g></g></g><g fill="#34b4f4" fill-opacity="1"><g transform="translate(165.178189, 264.600026)"><g><path d="M 20.671875 -8.234375 C 20.671875 -6.554688 20.242188 -5.0625 19.390625 -3.75 C 18.535156 -2.445312 17.300781 -1.429688 15.6875 -0.703125 C 14.082031 0.015625 12.195312 0.375 10.03125 0.375 C 8.226562 0.375 6.710938 0.25 5.484375 0 C 4.265625 -0.257812 2.992188 -0.707031 1.671875 -1.34375 L 1.671875 -7.875 C 3.066406 -7.15625 4.519531 -6.59375 6.03125 -6.1875 C 7.539062 -5.78125 8.925781 -5.578125 10.1875 -5.578125 C 11.269531 -5.578125 12.066406 -5.765625 12.578125 -6.140625 C 13.085938 -6.523438 13.34375 -7.015625 13.34375 -7.609375 C 13.34375 -7.984375 13.238281 -8.304688 13.03125 -8.578125 C 12.832031 -8.859375 12.503906 -9.140625 12.046875 -9.421875 C 11.597656 -9.710938 10.394531 -10.296875 8.4375 -11.171875 C 6.675781 -11.972656 5.351562 -12.75 4.46875 -13.5 C 3.582031 -14.257812 2.925781 -15.128906 2.5 -16.109375 C 2.070312 -17.085938 1.859375 -18.242188 1.859375 -19.578125 C 1.859375 -22.078125 2.765625 -24.023438 4.578125 -25.421875 C 6.398438 -26.816406 8.898438 -27.515625 12.078125 -27.515625 C 14.890625 -27.515625 17.753906 -26.863281 20.671875 -25.5625 L 18.421875 -19.90625 C 15.890625 -21.070312 13.703125 -21.65625 11.859375 -21.65625 C 10.898438 -21.65625 10.203125 -21.488281 9.765625 -21.15625 C 9.335938 -20.820312 9.125 -20.40625 9.125 -19.90625 C 9.125 -19.375 9.398438 -18.894531 9.953125 -18.46875 C 10.503906 -18.050781 12 -17.289062 14.4375 -16.1875 C 16.769531 -15.132812 18.390625 -14.003906 19.296875 -12.796875 C 20.210938 -11.585938 20.671875 -10.066406 20.671875 -8.234375 Z M 20.671875 -8.234375 "/></g></g></g><g fill="#34b4f4" fill-opacity="1"><g transform="translate(187.10532, 264.600026)"><g><path d="M 26.109375 0 L 17.828125 0 L 12.46875 -10.375 L 10.296875 -9.078125 L 10.296875 0 L 2.9375 0 L 2.9375 -27.125 L 10.296875 -27.125 L 10.296875 -15.34375 C 10.671875 -16.070312 11.421875 -17.226562 12.546875 -18.8125 L 18.234375 -27.125 L 26.25 -27.125 L 17.703125 -14.96875 Z M 26.109375 0 "/></g></g></g><g fill="#34b4f4" fill-opacity="1"><g transform="translate(213.206396, 264.600026)"><g><path d="M 19.578125 0 L 18.234375 -5.078125 L 9.421875 -5.078125 L 8.046875 0 L 0 0 L 8.84375 -27.234375 L 18.625 -27.234375 L 27.59375 0 Z M 16.71875 -11.09375 L 15.546875 -15.546875 C 15.273438 -16.535156 14.941406 -17.816406 14.546875 -19.390625 C 14.160156 -20.960938 13.90625 -22.085938 13.78125 -22.765625 C 13.675781 -22.140625 13.457031 -21.101562 13.125 -19.65625 C 12.800781 -18.207031 12.078125 -15.351562 10.953125 -11.09375 Z M 16.71875 -11.09375 "/></g></g></g><g fill="#34b4f4" fill-opacity="1"><g transform="translate(240.791542, 264.600026)"><g><path d="M 2.9375 0 L 2.9375 -27.125 L 10.265625 -27.125 L 10.265625 -5.921875 L 20.703125 -5.921875 L 20.703125 0 Z M 2.9375 0 "/></g></g></g><g fill="#00bd7e" fill-opacity="1"><g transform="translate(123.334625, 262.707009)"><g><path d="M 18.171875 -27.125 L 26.359375 -27.125 L 17.484375 0 L 8.84375 0 L 0 -27.125 L 8.234375 -27.125 L 11.9375 -13.375 C 12.695312 -10.320312 13.113281 -8.195312 13.1875 -7 C 13.28125 -7.863281 13.457031 -8.941406 13.71875 -10.234375 C 13.976562 -11.535156 14.207031 -12.554688 14.40625 -13.296875 Z M 18.171875 -27.125 "/></g></g></g><g fill="#00bd7e" fill-opacity="1"><g transform="translate(149.695414, 262.707009)"><g><path d="M 2.9375 0 L 2.9375 -27.125 L 10.296875 -27.125 L 10.296875 0 Z M 2.9375 0 "/></g></g></g><g fill="#00bd7e" fill-opacity="1"><g transform="translate(162.922185, 262.707009)"><g><path d="M 20.671875 -8.234375 C 20.671875 -6.554688 20.242188 -5.0625 19.390625 -3.75 C 18.535156 -2.445312 17.300781 -1.429688 15.6875 -0.703125 C 14.082031 0.015625 12.195312 0.375 10.03125 0.375 C 8.226562 0.375 6.710938 0.25 5.484375 0 C 4.265625 -0.257812 2.992188 -0.707031 1.671875 -1.34375 L 1.671875 -7.875 C 3.066406 -7.15625 4.519531 -6.59375 6.03125 -6.1875 C 7.539062 -5.78125 8.925781 -5.578125 10.1875 -5.578125 C 11.269531 -5.578125 12.066406 -5.765625 12.578125 -6.140625 C 13.085938 -6.523438 13.34375 -7.015625 13.34375 -7.609375 C 13.34375 -7.984375 13.238281 -8.304688 13.03125 -8.578125 C 12.832031 -8.859375 12.503906 -9.140625 12.046875 -9.421875 C 11.597656 -9.710938 10.394531 -10.296875 8.4375 -11.171875 C 6.675781 -11.972656 5.351562 -12.75 4.46875 -13.5 C 3.582031 -14.257812 2.925781 -15.128906 2.5 -16.109375 C 2.070312 -17.085938 1.859375 -18.242188 1.859375 -19.578125 C 1.859375 -22.078125 2.765625 -24.023438 4.578125 -25.421875 C 6.398438 -26.816406 8.898438 -27.515625 12.078125 -27.515625 C 14.890625 -27.515625 17.753906 -26.863281 20.671875 -25.5625 L 18.421875 -19.90625 C 15.890625 -21.070312 13.703125 -21.65625 11.859375 -21.65625 C 10.898438 -21.65625 10.203125 -21.488281 9.765625 -21.15625 C 9.335938 -20.820312 9.125 -20.40625 9.125 -19.90625 C 9.125 -19.375 9.398438 -18.894531 9.953125 -18.46875 C 10.503906 -18.050781 12 -17.289062 14.4375 -16.1875 C 16.769531 -15.132812 18.390625 -14.003906 19.296875 -12.796875 C 20.210938 -11.585938 20.671875 -10.066406 20.671875 -8.234375 Z M 20.671875 -8.234375 "/></g></g></g><g fill="#00bd7e" fill-opacity="1"><g transform="translate(184.849315, 262.707009)"><g><path d="M 26.109375 0 L 17.828125 0 L 12.46875 -10.375 L 10.296875 -9.078125 L 10.296875 0 L 2.9375 0 L 2.9375 -27.125 L 10.296875 -27.125 L 10.296875 -15.34375 C 10.671875 -16.070312 11.421875 -17.226562 12.546875 -18.8125 L 18.234375 -27.125 L 26.25 -27.125 L 17.703125 -14.96875 Z M 26.109375 0 "/></g></g></g><g fill="#00bd7e" fill-opacity="1"><g transform="translate(210.950391, 262.707009)"><g><path d="M 19.578125 0 L 18.234375 -5.078125 L 9.421875 -5.078125 L 8.046875 0 L 0 0 L 8.84375 -27.234375 L 18.625 -27.234375 L 27.59375 0 Z M 16.71875 -11.09375 L 15.546875 -15.546875 C 15.273438 -16.535156 14.941406 -17.816406 14.546875 -19.390625 C 14.160156 -20.960938 13.90625 -22.085938 13.78125 -22.765625 C 13.675781 -22.140625 13.457031 -21.101562 13.125 -19.65625 C 12.800781 -18.207031 12.078125 -15.351562 10.953125 -11.09375 Z M 16.71875 -11.09375 "/></g></g></g><g fill="#00bd7e" fill-opacity="1"><g transform="translate(238.535537, 262.707009)"><g><path d="M 2.9375 0 L 2.9375 -27.125 L 10.265625 -27.125 L 10.265625 -5.921875 L 20.703125 -5.921875 L 20.703125 0 Z M 2.9375 0 "/></g></g></g><g fill="#ffffff" fill-opacity="1"><g transform="translate(213.91795, 280.809092)"><g><path d="M 1.4375 -11.421875 L 5 -11.421875 C 6.613281 -11.421875 7.785156 -11.191406 8.515625 -10.734375 C 9.253906 -10.273438 9.625 -9.539062 9.625 -8.53125 C 9.625 -7.851562 9.460938 -7.296875 9.140625 -6.859375 C 8.816406 -6.421875 8.390625 -6.15625 7.859375 -6.0625 L 7.859375 -5.984375 C 8.585938 -5.828125 9.109375 -5.523438 9.421875 -5.078125 C 9.742188 -4.640625 9.90625 -4.050781 9.90625 -3.3125 C 9.90625 -2.269531 9.53125 -1.457031 8.78125 -0.875 C 8.03125 -0.289062 7.007812 0 5.71875 0 L 1.4375 0 Z M 3.859375 -6.90625 L 5.265625 -6.90625 C 5.921875 -6.90625 6.394531 -7.003906 6.6875 -7.203125 C 6.988281 -7.410156 7.140625 -7.75 7.140625 -8.21875 C 7.140625 -8.65625 6.976562 -8.96875 6.65625 -9.15625 C 6.332031 -9.34375 5.828125 -9.4375 5.140625 -9.4375 L 3.859375 -9.4375 Z M 3.859375 -4.984375 L 3.859375 -2 L 5.4375 -2 C 6.101562 -2 6.59375 -2.125 6.90625 -2.375 C 7.226562 -2.632812 7.390625 -3.03125 7.390625 -3.5625 C 7.390625 -4.507812 6.710938 -4.984375 5.359375 -4.984375 Z M 3.859375 -4.984375 "/></g></g></g><g fill="#ffffff" fill-opacity="1"><g transform="translate(224.665325, 280.809092)"><g><path d="M 6.796875 0 L 6.34375 -1.1875 L 6.28125 -1.1875 C 5.875 -0.6875 5.457031 -0.335938 5.03125 -0.140625 C 4.613281 0.0546875 4.0625 0.15625 3.375 0.15625 C 2.539062 0.15625 1.878906 -0.0820312 1.390625 -0.5625 C 0.910156 -1.039062 0.671875 -1.722656 0.671875 -2.609375 C 0.671875 -3.535156 0.992188 -4.21875 1.640625 -4.65625 C 2.296875 -5.101562 3.273438 -5.347656 4.578125 -5.390625 L 6.09375 -5.4375 L 6.09375 -5.828125 C 6.09375 -6.710938 5.640625 -7.15625 4.734375 -7.15625 C 4.035156 -7.15625 3.21875 -6.941406 2.28125 -6.515625 L 1.484375 -8.125 C 2.492188 -8.65625 3.609375 -8.921875 4.828125 -8.921875 C 6.003906 -8.921875 6.90625 -8.664062 7.53125 -8.15625 C 8.15625 -7.644531 8.46875 -6.867188 8.46875 -5.828125 L 8.46875 0 Z M 6.09375 -4.046875 L 5.171875 -4.015625 C 4.484375 -3.992188 3.96875 -3.867188 3.625 -3.640625 C 3.289062 -3.410156 3.125 -3.0625 3.125 -2.59375 C 3.125 -1.925781 3.507812 -1.59375 4.28125 -1.59375 C 4.832031 -1.59375 5.269531 -1.75 5.59375 -2.0625 C 5.925781 -2.382812 6.09375 -2.804688 6.09375 -3.328125 Z M 6.09375 -4.046875 "/></g></g></g><g fill="#ffffff" fill-opacity="1"><g transform="translate(234.327033, 280.809092)"><g><path d="M 0 -8.734375 L 2.609375 -8.734375 L 4.265625 -3.828125 C 4.398438 -3.398438 4.492188 -2.894531 4.546875 -2.3125 L 4.59375 -2.3125 C 4.65625 -2.84375 4.769531 -3.347656 4.9375 -3.828125 L 6.546875 -8.734375 L 9.109375 -8.734375 L 5.40625 1.125 C 5.070312 2.03125 4.585938 2.707031 3.953125 3.15625 C 3.328125 3.613281 2.597656 3.84375 1.765625 3.84375 C 1.347656 3.84375 0.941406 3.800781 0.546875 3.71875 L 0.546875 1.828125 C 0.835938 1.890625 1.148438 1.921875 1.484375 1.921875 C 1.910156 1.921875 2.28125 1.789062 2.59375 1.53125 C 2.90625 1.28125 3.148438 0.894531 3.328125 0.375 L 3.46875 -0.0625 Z M 0 -8.734375 "/></g></g></g><g fill="#ffffff" fill-opacity="1"><g transform="translate(243.426379, 280.809092)"><g><path d="M 7.4375 0 L 7.125 -1.125 L 7 -1.125 C 6.738281 -0.71875 6.375 -0.398438 5.90625 -0.171875 C 5.4375 0.046875 4.90625 0.15625 4.3125 0.15625 C 3.28125 0.15625 2.503906 -0.117188 1.984375 -0.671875 C 1.460938 -1.222656 1.203125 -2.015625 1.203125 -3.046875 L 1.203125 -8.734375 L 3.59375 -8.734375 L 3.59375 -3.640625 C 3.59375 -3.003906 3.703125 -2.53125 3.921875 -2.21875 C 4.148438 -1.90625 4.507812 -1.75 5 -1.75 C 5.664062 -1.75 6.144531 -1.96875 6.4375 -2.40625 C 6.738281 -2.851562 6.890625 -3.59375 6.890625 -4.625 L 6.890625 -8.734375 L 9.265625 -8.734375 L 9.265625 0 Z M 7.4375 0 "/></g></g></g><path stroke-linecap="round" transform="matrix(1.5, 0, 0, 1.5, 118.994315, 272.347132)" fill="none" stroke-linejoin="miter" d="M 0.501186 0.000349689 L 56.506398 0.000349689 " stroke="#000000" stroke-width="1" stroke-opacity="1" stroke-miterlimit="4"/><path stroke-linecap="round" transform="matrix(3, 0, 0, 3, 118.994315, 277.007003)" fill="none" stroke-linejoin="miter" d="M 0.500593 0.000269963 L 28.003199 0.000269963 " stroke="#000000" stroke-width="1" stroke-opacity="1" stroke-miterlimit="4"/></svg>