<?xml version="1.0" encoding="iso-8859-1"?>
<!-- Generator: Adobe Illustrator 19.0.0, SVG Export Plug-In . SVG Version: 6.00 Build 0)  -->
<svg version="1.1" id="Capa_1" xmlns="http://www.w3.org/2000/svg" xmlns:xlink="http://www.w3.org/1999/xlink" x="0px" y="0px"
	 viewBox="0 0 368 368" style="enable-background:new 0 0 368 368;" xml:space="preserve">
<g>
	<g>
		<path d="M335.416,133.112c-0.128-0.328-0.328-0.592-0.496-0.896c-0.224-0.408-0.376-0.848-0.672-1.216L272,53.192V8
			c0-4.424-3.584-8-8-8H104c-4.416,0-8,3.576-8,8v45.192L33.752,131c-0.296,0.368-0.448,0.808-0.672,1.216
			c-0.168,0.304-0.368,0.568-0.496,0.896C32.224,134.032,32,135,32,136v224c0,4.424,3.584,8,8,8h288c4.416,0,8-3.576,8-8V136
			C336,135,335.776,134.032,335.416,133.112z M311.352,128h-94.704L264,68.808L311.352,128z M112,16h144v32H112V16z M192,352H48v-48
			h144V352z M192,288H48v-80h144V288z M192,192H48v-48h144V192z M56.648,128l51.2-64h139.504l-51.2,64H56.648z M320,352h-48v-40
			c0-4.424-3.584-8-8-8c-4.416,0-8,3.576-8,8v40h-48V144h48v120c0,4.424,3.584,8,8,8c4.416,0,8-3.576,8-8V144h48V352z"/>
	</g>
</g>
<g>
</g>
<g>
</g>
<g>
</g>
<g>
</g>
<g>
</g>
<g>
</g>
<g>
</g>
<g>
</g>
<g>
</g>
<g>
</g>
<g>
</g>
<g>
</g>
<g>
</g>
<g>
</g>
<g>
</g>
</svg>
